<svg width="27" height="24" viewBox="0 0 27 24" fill="none" xmlns="http://www.w3.org/2000/svg">
<path d="M26.1065 5.33363C25.8761 4.93445 25.5462 4.6018 25.149 4.36812C24.7517 4.13444 24.3007 4.00771 23.8398 4.00029H6.77317L5.99984 0.98696C5.9217 0.696078 5.74739 0.440219 5.50527 0.261056C5.26316 0.0818934 4.96752 -0.0100173 4.6665 0.000293693H1.99984C1.64622 0.000293693 1.30708 0.140769 1.05703 0.390818C0.80698 0.640866 0.666504 0.980005 0.666504 1.33363C0.666504 1.68725 0.80698 2.02639 1.05703 2.27644C1.30708 2.52648 1.64622 2.66696 1.99984 2.66696H3.65317L7.33317 16.347C7.4113 16.6378 7.58562 16.8937 7.82773 17.0729C8.06985 17.252 8.36549 17.3439 8.6665 17.3336H20.6665C20.9127 17.3329 21.1539 17.264 21.3634 17.1345C21.5728 17.0051 21.7424 16.8202 21.8532 16.6003L26.2265 7.85363C26.4161 7.45631 26.5043 7.01825 26.4834 6.57854C26.4624 6.13882 26.333 5.71113 26.1065 5.33363ZM19.8398 14.667H9.67984L7.5065 6.66696H23.8398L19.8398 14.667Z" fill="#728ECE"/>
<path d="M8 24C9.10457 24 10 23.1046 10 22C10 20.8954 9.10457 20 8 20C6.89543 20 6 20.8954 6 22C6 23.1046 6.89543 24 8 24Z" fill="#728ECE"/>
<path d="M21.333 24C22.4376 24 23.333 23.1046 23.333 22C23.333 20.8954 22.4376 20 21.333 20C20.2284 20 19.333 20.8954 19.333 22C19.333 23.1046 20.2284 24 21.333 24Z" fill="#728ECE"/>
</svg>
