<svg width="87" height="87" viewBox="0 0 87 87" fill="none" xmlns="http://www.w3.org/2000/svg">
<path d="M13.7549 76.1644H14.9598V77.191C14.618 77.3832 14.2294 77.4766 13.8375 77.4607C12.5586 77.4607 11.8626 76.495 11.8626 75.2857C11.8626 74.0764 12.5499 73.1107 13.8245 73.1107C14.5422 73.1125 15.2404 73.3442 15.8168 73.7719L16.5563 72.2668C15.7284 71.7789 14.7854 71.5206 13.8245 71.5186C11.2754 71.5186 9.98779 73.2107 9.98779 75.3031C9.98779 77.3954 11.2928 79.0919 13.8375 79.0919C14.8391 79.0631 15.8107 78.7443 16.6346 78.1741V74.7463H13.7549V76.1644Z" fill="#2B2B2B"/>
<path d="M20.2012 73.7803C18.5873 73.7803 17.5303 74.7677 17.5303 76.4338C17.5303 78.0998 18.67 79.0742 20.4013 79.0742C21.1488 79.0993 21.8893 78.9235 22.5458 78.5653L22.0369 77.4299C21.5224 77.6711 20.9607 77.7944 20.3926 77.791C19.7836 77.791 19.4051 77.63 19.3138 76.921H22.7024L22.772 76.412C22.772 74.7677 21.9542 73.7803 20.2012 73.7803ZM19.3312 75.9031C19.4225 75.2767 19.7096 74.9591 20.1664 74.9591C20.2904 74.9531 20.4142 74.9736 20.5296 75.0194C20.645 75.0652 20.7493 75.1351 20.8354 75.2246C20.9215 75.314 20.9875 75.4208 21.0289 75.5378C21.0703 75.6549 21.0862 75.7794 21.0755 75.9031H19.3312Z" fill="#2B2B2B"/>
<path d="M27.1485 73.7803C26.5223 73.7881 25.9217 74.0302 25.4651 74.4589H25.4259L25.2258 73.8499H23.7686V79.022H25.5086V75.8552C25.6199 75.681 25.771 75.5357 25.9495 75.4313C26.128 75.327 26.3287 75.2665 26.5352 75.2549C26.9136 75.2549 27.2921 75.4159 27.2921 76.151V79.0307H29.0321V76.2511C29.0625 74.2327 28.0664 73.7803 27.1485 73.7803Z" fill="#2B2B2B"/>
<path d="M32.7773 73.7803C31.1635 73.7803 30.1064 74.7677 30.1064 76.4338C30.1064 78.0998 31.2418 79.0742 32.9774 79.0742C33.7249 79.0993 34.4655 78.9235 35.122 78.5653L34.613 77.4299C34.0986 77.6711 33.5369 77.7944 32.9687 77.791C32.3597 77.791 31.9813 77.63 31.8899 76.921H35.2786L35.3482 76.412C35.3482 74.7677 34.5304 73.7803 32.7773 73.7803ZM31.9073 75.9031C31.9987 75.2767 32.2858 74.9591 32.7425 74.9591C32.8665 74.9531 32.9904 74.9736 33.1058 75.0194C33.2212 75.0652 33.3254 75.1351 33.4116 75.2246C33.4977 75.314 33.5637 75.4208 33.6051 75.5378C33.6465 75.6549 33.6624 75.7794 33.6517 75.9031H31.9073Z" fill="#2B2B2B"/>
<path d="M38.0407 74.4588H38.0016L37.8015 73.8498H36.3442V79.0219H38.0842V75.9769C38.1961 75.8025 38.3472 75.6566 38.5254 75.5509C38.7037 75.4452 38.9041 75.3825 39.1108 75.3679C39.3489 75.3566 39.5858 75.4076 39.7981 75.5158L40.194 73.9498C39.9508 73.8457 39.6885 73.7938 39.424 73.7976C39.1612 73.8107 38.9035 73.8759 38.6661 73.9894C38.4286 74.1029 38.2161 74.2625 38.0407 74.4588Z" fill="#2B2B2B"/>
<path d="M42.9126 73.7802C42.1668 73.7703 41.43 73.9451 40.7681 74.2891L41.277 75.4158C41.7199 75.1832 42.2123 75.0608 42.7126 75.0591C43.2911 75.0591 43.6783 75.2853 43.6783 76.003C43.3389 75.9228 42.9917 75.8805 42.6429 75.8769C40.5897 75.8769 40.3896 76.9209 40.3896 77.4298C40.3896 78.3955 41.1596 79.0741 42.2732 79.0741C42.5541 79.0669 42.8306 79.0031 43.0862 78.8865C43.3419 78.7699 43.5713 78.6029 43.7609 78.3955H43.8001L44.0001 79.0045H45.453V75.9943C45.453 74.5197 44.4351 73.7802 42.9126 73.7802ZM42.8909 77.8648C42.4559 77.8648 42.1949 77.656 42.1949 77.2993C42.1949 76.9426 42.3558 76.7295 42.9431 76.7295C43.1953 76.722 43.4462 76.7695 43.6783 76.8687C43.6959 76.9864 43.6893 77.1064 43.6587 77.2215C43.6281 77.3365 43.5742 77.444 43.5004 77.5374C43.4266 77.6307 43.3345 77.708 43.2296 77.7643C43.1248 77.8206 43.0095 77.8548 42.8909 77.8648Z" fill="#2B2B2B"/>
<path d="M48.4026 76.8038V71.0923H46.6626V76.843C46.6626 78.3481 47.2107 79.0919 48.4026 79.0919C48.5752 79.0908 48.7466 79.0645 48.9116 79.0136L49.1595 77.6782C48.5114 77.6782 48.4026 77.3215 48.4026 76.8038Z" fill="#2B2B2B"/>
<path d="M53.0698 71.562H49.9683V79.0136H51.8431V76.7603H53.0698C54.6619 76.7603 55.98 75.5945 55.98 74.1503C55.98 72.7061 54.6489 71.562 53.0698 71.562ZM52.8697 75.2291H51.8431V73.0541H52.8697C53.0239 73.0397 53.1794 73.0572 53.3265 73.1054C53.4737 73.1536 53.6093 73.2315 53.7252 73.3342C53.841 73.437 53.9345 73.5624 53.9998 73.7028C54.0652 73.8432 54.101 73.9955 54.1051 74.1503C54.0952 74.3035 54.0549 74.4533 53.9866 74.5908C53.9182 74.7283 53.8232 74.8509 53.707 74.9513C53.5908 75.0517 53.4557 75.128 53.3097 75.1757C53.1638 75.2234 53.0097 75.2415 52.8567 75.2291H52.8697Z" fill="#728ECE"/>
<path d="M59.086 73.7802C58.3401 73.7703 57.6033 73.9451 56.9414 74.2891L57.4504 75.4158C57.8932 75.1832 58.3857 75.0608 58.8859 75.0591C59.4644 75.0591 59.8516 75.2853 59.8516 76.003C59.5122 75.9228 59.165 75.8805 58.8163 75.8769C56.7631 75.8769 56.563 76.9209 56.563 77.4298C56.563 78.3955 57.3286 79.0741 58.4465 79.0741C58.7269 79.0674 59.0029 79.0037 59.2579 78.8871C59.5128 78.7704 59.7415 78.6032 59.9299 78.3955H59.9734L60.1691 79.0045H61.6264V75.9943C61.6264 74.5197 60.6085 73.7802 59.086 73.7802ZM59.0642 77.8474C58.6292 77.8474 58.3682 77.6386 58.3682 77.2819C58.3682 76.9252 58.5248 76.7121 59.1164 76.7121C59.3687 76.7046 59.6195 76.7521 59.8516 76.8513C59.8719 76.9703 59.8672 77.0922 59.8379 77.2093C59.8085 77.3264 59.7551 77.4361 59.681 77.5314C59.607 77.6267 59.5139 77.7056 59.4077 77.763C59.3015 77.8204 59.1846 77.8551 59.0642 77.8648V77.8474Z" fill="#728ECE"/>
<path d="M65.0022 76.834H64.9631L63.9365 73.7847L62.0225 73.8412L64.1192 78.7132L63.1013 81.0883L64.8065 81.1449L67.9428 73.8412L66.0288 73.7847L65.0022 76.834Z" fill="#728ECE"/>
<path d="M54.7185 26.5351C56.1836 25.7199 57.8552 25.3514 59.5272 25.4751C61.1992 25.5988 62.7984 26.2092 64.1276 27.2311L75.1635 35.7005C75.3637 35.8563 75.6103 35.9405 75.8639 35.9398C76.1031 35.9386 76.3359 35.8628 76.53 35.7229C76.724 35.583 76.8695 35.386 76.9461 35.1594C77.0228 34.9328 77.0268 34.6879 76.9575 34.459C76.8883 34.23 76.7493 34.0284 76.5599 33.8822L65.5283 25.4171C63.8427 24.1224 61.8146 23.3499 59.6948 23.1953C57.5749 23.0407 55.4562 23.5107 53.6006 24.5471L42.7256 30.5893V33.1993L54.7185 26.5351Z" fill="#2B2B2B"/>
<path d="M42.7432 52.4086H55.8671V49.4549L52.522 49.0547C51.3714 48.9203 50.2411 48.6487 49.1551 48.2456C48.3059 47.8943 47.5712 47.3135 47.0334 46.5682C46.4956 45.823 46.1759 44.9428 46.1101 44.0261C46.0334 43.3205 46.1627 42.6078 46.4822 41.974C46.8018 41.3403 47.298 40.8126 47.911 40.4548C49.2986 39.6718 52.5524 39.4325 55.8671 39.4108V34.7998C55.8671 34.4952 55.7461 34.2031 55.5308 33.9877C55.3154 33.7724 55.0233 33.6514 54.7187 33.6514H42.7432V52.4086Z" fill="#2B2B2B"/>
<path d="M42.7432 54.7056V60.2562H54.7187C55.0229 60.255 55.3144 60.1337 55.5295 59.9185C55.7446 59.7034 55.866 59.412 55.8671 59.1078V54.7056H42.7432Z" fill="#2B2B2B"/>
<path d="M49.5508 42.2344C49.3742 42.2838 49.2035 42.3523 49.0418 42.4388C48.7638 42.5886 48.5536 42.8392 48.4546 43.1392C48.7582 42.7697 49.1304 42.4624 49.5508 42.2344Z" fill="#2B2B2B"/>
<path d="M42.7432 60.2564V27.9968C42.7432 27.0426 42.3651 26.1274 41.6916 25.4514C41.0181 24.7755 40.1043 24.3941 39.1501 24.3906H38.8065V28.0751C38.8065 28.3251 38.7571 28.5726 38.6613 28.8035C38.5655 29.0345 38.4251 29.2442 38.2481 29.4208C38.0712 29.5974 37.8611 29.7373 37.63 29.8326C37.3988 29.9279 37.1512 29.9766 36.9012 29.976H17.0173C16.5131 29.976 16.0296 29.7757 15.6731 29.4193C15.3166 29.0628 15.1164 28.5792 15.1164 28.0751V24.3906H15.012C14.0563 24.3918 13.1402 24.7722 12.4648 25.4484C11.7895 26.1245 11.4102 27.0411 11.4102 27.9968V64.5585C11.4102 65.5142 11.7895 66.4308 12.4648 67.1069C13.1402 67.7831 14.0563 68.1635 15.012 68.1647H39.1501C40.1065 68.1647 41.0238 67.7847 41.7 67.1085C42.3763 66.4322 42.7563 65.5149 42.7563 64.5585L42.7432 60.2564ZM38.7934 53.2094V53.9054C38.7934 54.1292 38.7045 54.3438 38.5462 54.5021C38.388 54.6604 38.1733 54.7493 37.9495 54.7493H33.4038C33.1799 54.7493 32.9653 54.6604 32.807 54.5021C32.6488 54.3438 32.5599 54.1292 32.5599 53.9054V53.2094C32.5599 52.9856 32.6488 52.7709 32.807 52.6126C32.9653 52.4544 33.1799 52.3655 33.4038 52.3655H37.9495C38.1733 52.3655 38.388 52.4544 38.5462 52.6126C38.7045 52.7709 38.7934 52.9856 38.7934 53.2094ZM30.0717 53.2094V53.9054C30.0717 54.1292 29.9827 54.3438 29.8245 54.5021C29.6662 54.6604 29.4516 54.7493 29.2278 54.7493H24.682C24.4582 54.7493 24.2435 54.6604 24.0853 54.5021C23.927 54.3438 23.8381 54.1292 23.8381 53.9054V53.2094C23.8381 52.9856 23.927 52.7709 24.0853 52.6126C24.2435 52.4544 24.4582 52.3655 24.682 52.3655H29.2278C29.4516 52.3655 29.6662 52.4544 29.8245 52.6126C29.9827 52.7709 30.0717 52.9856 30.0717 53.2094ZM23.8381 47.8154V47.1194C23.8381 47.0088 23.86 46.8992 23.9024 46.7971C23.9449 46.6949 24.0071 46.6022 24.0855 46.5242C24.164 46.4462 24.257 46.3844 24.3594 46.3425C24.4617 46.3005 24.5714 46.2793 24.682 46.2798H29.2278C29.3384 46.2793 29.448 46.3005 29.5504 46.3425C29.6527 46.3844 29.7458 46.4462 29.8242 46.5242C29.9026 46.6022 29.9649 46.6949 30.0073 46.7971C30.0498 46.8992 30.0717 47.0088 30.0717 47.1194V47.8154C30.0717 48.0392 29.9827 48.2538 29.8245 48.4121C29.6662 48.5704 29.4516 48.6593 29.2278 48.6593H24.682C24.4582 48.6593 24.2435 48.5704 24.0853 48.4121C23.927 48.2538 23.8381 48.0392 23.8381 47.8154ZM32.5381 47.8154V47.1194C32.5381 47.0088 32.56 46.8992 32.6024 46.7971C32.6449 46.6949 32.7071 46.6022 32.7855 46.5242C32.864 46.4462 32.957 46.3844 33.0594 46.3425C33.1618 46.3005 33.2714 46.2793 33.382 46.2798H37.9495C38.0601 46.2793 38.1698 46.3005 38.2721 46.3425C38.3745 46.3844 38.4676 46.4462 38.546 46.5242C38.6244 46.6022 38.6866 46.6949 38.7291 46.7971C38.7715 46.8992 38.7934 47.0088 38.7934 47.1194V47.8154C38.7934 48.0392 38.7045 48.2538 38.5462 48.4121C38.388 48.5704 38.1733 48.6593 37.9495 48.6593H33.4038C33.2929 48.6593 33.1832 48.6374 33.0808 48.595C32.9784 48.5526 32.8854 48.4905 32.807 48.4121C32.7287 48.3337 32.6665 48.2407 32.6241 48.1383C32.5817 48.0359 32.5599 47.9262 32.5599 47.8154H32.5381ZM15.36 35.6093C15.3594 35.2847 15.4231 34.9632 15.5474 34.6634C15.6718 34.3635 15.8543 34.0913 16.0844 33.8624C16.3145 33.6335 16.5877 33.4524 16.8882 33.3297C17.1887 33.2069 17.5105 33.1449 17.8351 33.1472H36.3313C36.9843 33.1472 37.6105 33.4066 38.0723 33.8683C38.534 34.33 38.7934 34.9563 38.7934 35.6093V39.6852C38.7934 40.3382 38.534 40.9645 38.0723 41.4262C37.6105 41.8879 36.9843 42.1473 36.3313 42.1473H17.8351C17.512 42.1479 17.1919 42.0847 16.8932 41.9615C16.5945 41.8382 16.3231 41.6573 16.0944 41.429C15.8657 41.2007 15.6843 40.9296 15.5605 40.6311C15.4367 40.3326 15.373 40.0127 15.373 39.6896L15.36 35.6093ZM21.3499 60.0302C21.3534 60.1432 21.3342 60.2557 21.2933 60.3611C21.2525 60.4666 21.1909 60.5627 21.1122 60.6438C21.0334 60.725 20.9392 60.7895 20.8351 60.8335C20.731 60.8776 20.6191 60.9002 20.506 60.9002H15.9603C15.8472 60.9002 15.7353 60.8776 15.6312 60.8335C15.527 60.7895 15.4328 60.725 15.3541 60.6438C15.2754 60.5627 15.2138 60.4666 15.1729 60.3611C15.1321 60.2557 15.1129 60.1432 15.1164 60.0302V59.3342C15.1164 59.1104 15.2053 58.8957 15.3635 58.7374C15.5218 58.5792 15.7364 58.4903 15.9603 58.4903H20.506C20.7298 58.4903 20.9445 58.5792 21.1027 58.7374C21.261 58.8957 21.3499 59.1104 21.3499 59.3342V60.0302ZM21.3499 53.901C21.3499 54.1248 21.261 54.3395 21.1027 54.4978C20.9445 54.656 20.7298 54.7449 20.506 54.7449H15.9603C15.7364 54.7449 15.5218 54.656 15.3635 54.4978C15.2053 54.3395 15.1164 54.1248 15.1164 53.901V53.205C15.1164 52.9812 15.2053 52.7666 15.3635 52.6083C15.5218 52.45 15.7364 52.3611 15.9603 52.3611H20.506C20.7298 52.3611 20.9445 52.45 21.1027 52.6083C21.261 52.7666 21.3499 52.9812 21.3499 53.205V53.901ZM21.3499 47.811C21.3499 48.0348 21.261 48.2495 21.1027 48.4078C20.9445 48.566 20.7298 48.6549 20.506 48.6549H15.9603C15.7364 48.6549 15.5218 48.566 15.3635 48.4078C15.2053 48.2495 15.1164 48.0348 15.1164 47.811V47.115C15.1164 47.0044 15.1382 46.8949 15.1807 46.7927C15.2231 46.6906 15.2854 46.5978 15.3638 46.5198C15.4422 46.4418 15.5353 46.3801 15.6376 46.3381C15.74 46.2962 15.8496 46.2749 15.9603 46.2755H20.506C20.6166 46.2749 20.7263 46.2962 20.8286 46.3381C20.931 46.3801 21.0241 46.4418 21.1025 46.5198C21.1809 46.5978 21.2431 46.6906 21.2856 46.7927C21.328 46.8949 21.3499 47.0044 21.3499 47.115V47.811ZM30.0499 60.0302C30.0534 60.1414 30.0348 60.2521 29.9953 60.3561C29.9559 60.4601 29.8962 60.5553 29.8198 60.6362C29.7434 60.717 29.6517 60.782 29.5501 60.8273C29.4485 60.8726 29.339 60.8974 29.2278 60.9002H24.682C24.569 60.9002 24.457 60.8776 24.3529 60.8335C24.2488 60.7895 24.1546 60.725 24.0759 60.6438C23.9971 60.5627 23.9355 60.4666 23.8947 60.3611C23.8539 60.2557 23.8346 60.1432 23.8381 60.0302V59.3342C23.8381 59.1104 23.927 58.8957 24.0853 58.7374C24.2435 58.5792 24.4582 58.4903 24.682 58.4903H29.2278C29.4516 58.4903 29.6662 58.5792 29.8245 58.7374C29.9827 58.8957 30.0717 59.1104 30.0717 59.3342L30.0499 60.0302ZM37.9495 60.9002H33.4038C33.2907 60.9002 33.1788 60.8776 33.0747 60.8335C32.9705 60.7895 32.8763 60.725 32.7976 60.6438C32.7189 60.5627 32.6573 60.4666 32.6164 60.3611C32.5756 60.2557 32.5564 60.1432 32.5599 60.0302V59.3342C32.5599 59.1104 32.6488 58.8957 32.807 58.7374C32.9653 58.5792 33.1799 58.4903 33.4038 58.4903H37.9495C38.1733 58.4903 38.388 58.5792 38.5462 58.7374C38.7045 58.8957 38.7934 59.1104 38.7934 59.3342V60.0302C38.7969 60.1432 38.7777 60.2557 38.7368 60.3611C38.696 60.4666 38.6344 60.5627 38.5557 60.6438C38.4769 60.725 38.3827 60.7895 38.2786 60.8335C38.1745 60.8776 38.0626 60.9002 37.9495 60.9002Z" fill="#728ECE"/>
<path d="M15.8037 25.0561C15.8535 25.879 16.2151 26.6519 16.8147 27.2176C17.4144 27.7833 18.2071 28.0993 19.0314 28.1011H34.8741C35.699 28.0993 36.4922 27.7836 37.0925 27.218C37.6929 26.6523 38.0553 25.8793 38.1062 25.0561L38.7935 14.3551L39.1502 9.08288C39.1596 8.93293 39.1394 8.78258 39.0908 8.64043C39.0421 8.49828 38.9659 8.36711 38.8665 8.25441C38.7672 8.14171 38.6466 8.04969 38.5116 7.9836C38.3767 7.91751 38.2301 7.87865 38.0801 7.86923H34.8002L34.3086 7.46903L32.9688 6.39458C32.775 6.23826 32.5355 6.14944 32.2867 6.14159C32.0378 6.13374 31.7932 6.20729 31.5899 6.35108L30.0152 7.46468L29.7716 7.63868L29.4801 7.46468L27.5487 6.30758C27.3691 6.19852 27.163 6.14085 26.9528 6.14085C26.7426 6.14085 26.5365 6.19852 26.3568 6.30758L24.4472 7.46468L24.1949 7.62128L23.9948 7.46468L22.2113 6.09008C22.0062 5.92966 21.7523 5.84432 21.4919 5.84828C21.2315 5.85223 20.9803 5.94525 20.7801 6.11183L19.1402 7.46468L18.6573 7.86488H15.8472C15.5459 7.88717 15.2657 8.02776 15.0676 8.25595C14.8696 8.48415 14.7698 8.78142 14.7902 9.08288L15.1164 14.3551L15.8037 25.0561ZM19.0706 10.1573C19.337 10.157 19.5951 10.0649 19.8014 9.89633L21.5414 8.46953L23.4206 9.91808C23.6048 10.0616 23.8284 10.1456 24.0616 10.1588C24.2947 10.172 24.5264 10.1139 24.7256 9.99203L26.9702 8.63048L29.2191 10.0051C29.4098 10.1204 29.6301 10.1774 29.8527 10.1689C30.0754 10.1604 30.2907 10.0868 30.4719 9.95723L32.212 8.73488L33.6866 9.91373C33.8894 10.0785 34.1431 10.1677 34.4043 10.166H36.7577L35.8137 24.9082C35.7952 25.1448 35.6881 25.3656 35.514 25.5269C35.3399 25.6881 35.1114 25.7778 34.8741 25.7782H19.0314C18.7941 25.7778 18.5657 25.6881 18.3916 25.5269C18.2174 25.3656 18.1104 25.1448 18.0918 24.9082L17.1479 10.1573H19.0706Z" fill="#2B2B2B"/>
<path d="M20.5059 58.4946H15.9601C15.494 58.4946 15.1162 58.8725 15.1162 59.3385V60.0345C15.1162 60.5006 15.494 60.8784 15.9601 60.8784H20.5059C20.9719 60.8784 21.3498 60.5006 21.3498 60.0345V59.3385C21.3498 58.8725 20.9719 58.4946 20.5059 58.4946Z" fill="#ED5446"/>
<path d="M29.2275 58.4946H24.6818C24.2157 58.4946 23.8379 58.8725 23.8379 59.3385V60.0345C23.8379 60.5006 24.2157 60.8784 24.6818 60.8784H29.2275C29.6936 60.8784 30.0714 60.5006 30.0714 60.0345V59.3385C30.0714 58.8725 29.6936 58.4946 29.2275 58.4946Z" fill="#FFF419"/>
<path d="M37.9492 58.4946H33.4035C32.9374 58.4946 32.5596 58.8725 32.5596 59.3385V60.0345C32.5596 60.5006 32.9374 60.8784 33.4035 60.8784H37.9492C38.4153 60.8784 38.7931 60.5006 38.7931 60.0345V59.3385C38.7931 58.8725 38.4153 58.4946 37.9492 58.4946Z" fill="#86FC6B"/>
<path d="M47.9111 40.4552C47.2912 40.8113 46.7886 41.3405 46.4649 41.9779C46.1411 42.6153 46.0103 43.3333 46.0884 44.0439C46.1543 44.9606 46.474 45.8408 47.0118 46.586C47.5496 47.3313 48.2842 47.9121 49.1334 48.2634C50.2194 48.6665 51.3498 48.9381 52.5003 49.0725L55.8455 49.4727L67.4252 50.8343H67.56C67.8518 50.8327 68.1321 50.7201 68.3439 50.5194C68.5557 50.3186 68.6831 50.0448 68.7003 49.7535C68.7175 49.4621 68.6231 49.1752 68.4363 48.951C68.2496 48.7267 67.9845 48.582 67.6949 48.5462L59.4821 47.5631L52.7918 46.767C51.8287 46.6553 50.8824 46.4289 49.973 46.0928C49.5286 45.8976 49.1453 45.586 48.8635 45.1909C48.5817 44.7958 48.4119 44.3319 48.3722 43.8482C48.3499 43.6061 48.3765 43.362 48.4505 43.1304C48.5495 42.8305 48.7596 42.5799 49.0377 42.4301C49.1994 42.3436 49.3701 42.275 49.5467 42.2256C52.1132 41.4339 59.8823 41.6601 64.5411 42.0212C64.8377 42.0326 65.1272 41.9288 65.3489 41.7315C65.5706 41.5343 65.7073 41.2588 65.7304 40.9629C65.7535 40.667 65.6611 40.3737 65.4726 40.1444C65.2841 39.9151 65.0142 39.7677 64.7195 39.7331C63.5015 39.6374 59.643 39.3677 55.8629 39.3851C52.5525 39.4155 49.2987 39.6548 47.9111 40.4552Z" fill="#2B2B2B"/>
</svg>
